<svg xmlns="http://www.w3.org/2000/svg" xmlns:xlink="http://www.w3.org/1999/xlink" width="500" zoomAndPan="magnify" viewBox="0 0 375 374.999991" height="500" preserveAspectRatio="xMidYMid meet" version="1.0"><defs><clipPath id="06a3ad94f9"><path d="M 6.839844 20.507812 L 368.339844 20.507812 L 368.339844 341.507812 L 6.839844 341.507812 Z M 6.839844 20.507812 " clip-rule="nonzero"/></clipPath></defs><rect x="-37.5" width="450" fill="#ffffff" y="-37.499999" height="449.999989" fill-opacity="1"/><rect x="-37.5" width="450" fill="#ffffff" y="-37.499999" height="449.999989" fill-opacity="1"/><g clip-path="url(#06a3ad94f9)"><path fill="#000000" d="M 364.304688 296.410156 L 213.703125 35.597656 C 208.492188 26.589844 198.746094 20.507812 187.589844 20.507812 C 176.433594 20.507812 166.6875 26.589844 161.476562 35.597656 L 10.875 296.410156 C 8.332031 300.824219 6.867188 305.949219 6.867188 311.414062 C 6.867188 328.027344 20.363281 341.507812 36.988281 341.507812 L 338.191406 341.507812 C 354.816406 341.507812 368.3125 328.027344 368.3125 311.414062 C 368.3125 305.949219 366.855469 300.824219 364.304688 296.410156 Z M 36.96875 311.445312 L 187.558594 50.601562 L 187.589844 50.601562 L 187.609375 50.632812 L 338.191406 311.414062 Z M 187.589844 241.195312 C 176.503906 241.195312 167.507812 250.183594 167.507812 261.257812 C 167.507812 272.34375 176.496094 281.320312 187.589844 281.320312 C 198.683594 281.320312 207.667969 272.335938 207.667969 261.257812 C 207.667969 250.183594 198.683594 241.195312 187.589844 241.195312 Z M 167.507812 150.914062 C 167.507812 152.058594 167.609375 153.191406 167.789062 154.285156 L 177.679688 212.789062 C 178.492188 217.535156 182.621094 221.132812 187.589844 221.132812 C 192.558594 221.132812 196.6875 217.535156 197.488281 212.789062 L 207.378906 154.285156 C 207.570312 153.191406 207.667969 152.058594 207.667969 150.914062 C 207.667969 139.839844 198.683594 130.851562 187.589844 130.851562 C 176.503906 130.851562 167.507812 139.839844 167.507812 150.914062 Z M 167.507812 150.914062 " fill-opacity="1" fill-rule="evenodd"/></g></svg>