<svg xmlns="http://www.w3.org/2000/svg" xmlns:xlink="http://www.w3.org/1999/xlink" width="500" zoomAndPan="magnify" viewBox="0 0 375 374.999991" height="500" preserveAspectRatio="xMidYMid meet" version="1.0"><defs><clipPath id="ac4d1f63c8"><path d="M 49.382812 16 L 337.382812 16 L 337.382812 358 L 49.382812 358 Z M 49.382812 16 " clip-rule="nonzero"/></clipPath></defs><rect x="-37.5" width="450" fill="#ffffff" y="-37.499999" height="449.999989" fill-opacity="1"/><rect x="-37.5" width="450" fill="#ffffff" y="-37.499999" height="449.999989" fill-opacity="1"/><rect x="-37.5" width="450" fill="#e4c8a8" y="-37.499999" height="449.999989" fill-opacity="1"/><g clip-path="url(#ac4d1f63c8)"><path fill="#ffffff" d="M 193.949219 16.050781 L 61.140625 16.050781 C 54.855469 16.050781 49.757812 21.148438 49.757812 27.429688 L 49.757812 346.078125 C 49.757812 352.359375 54.855469 357.457031 61.140625 357.457031 L 326.761719 357.457031 C 333.042969 357.457031 338.144531 352.359375 338.144531 346.078125 L 338.144531 186.753906 C 338.144531 180.472656 333.042969 175.375 326.761719 175.375 C 320.476562 175.375 315.378906 180.472656 315.378906 186.753906 L 315.378906 334.699219 C 315.378906 334.699219 72.523438 334.699219 72.523438 334.699219 C 72.523438 334.699219 72.523438 38.808594 72.523438 38.808594 C 72.523438 38.808594 193.949219 38.808594 193.949219 38.808594 C 200.234375 38.808594 205.335938 33.710938 205.335938 27.429688 C 205.335938 21.148438 200.234375 16.050781 193.949219 16.050781 Z M 332.089844 96.609375 C 336.539062 92.160156 336.539062 84.957031 332.089844 80.507812 L 299.894531 48.324219 C 295.445312 43.875 288.238281 43.875 283.800781 48.324219 L 171.105469 160.976562 C 169.863281 162.230469 168.917969 163.753906 168.359375 165.425781 L 152.253906 213.714844 C 150.898438 217.800781 151.957031 222.304688 155.007812 225.355469 C 158.058594 228.40625 162.566406 229.476562 166.652344 228.109375 L 214.953125 212.019531 C 216.625 211.460938 218.152344 210.515625 219.402344 209.265625 Z M 267.703125 96.609375 L 283.800781 112.703125 L 205.210938 191.273438 C 205.210938 191.273438 181.054688 199.316406 181.054688 199.316406 C 181.054688 199.316406 189.101562 175.179688 189.101562 175.179688 Z M 283.800781 80.507812 L 291.847656 72.460938 L 307.945312 88.554688 L 299.894531 96.609375 Z M 283.800781 80.507812 " fill-opacity="1" fill-rule="evenodd"/></g></svg>