<svg xmlns="http://www.w3.org/2000/svg" xmlns:xlink="http://www.w3.org/1999/xlink" width="500" zoomAndPan="magnify" viewBox="0 0 375 374.999991" height="500" preserveAspectRatio="xMidYMid meet" version="1.0"><defs><clipPath id="17dbe53577"><path d="M 5 12 L 371.421875 12 L 371.421875 359.609375 L 5 359.609375 Z M 5 12 " clip-rule="nonzero"/></clipPath><clipPath id="926e2043a3"><path d="M 4.671875 10.859375 L 371 10.859375 L 371 359 L 4.671875 359 Z M 4.671875 10.859375 " clip-rule="nonzero"/></clipPath></defs><rect x="-37.5" width="450" fill="#ffffff" y="-37.499999" height="449.999989" fill-opacity="1"/><rect x="-37.5" width="450" fill="#ffffff" y="-37.499999" height="449.999989" fill-opacity="1"/><rect x="-37.5" width="450" fill="#ffffff" y="-37.499999" height="449.999989" fill-opacity="1"/><g clip-path="url(#17dbe53577)"><path fill="#000000" d="M 188.523438 12.0625 L 245.027344 126.414062 L 371.421875 144.753906 L 279.9375 233.828125 L 301.601562 359.503906 L 188.523438 300.171875 L 75.375 359.503906 L 96.964844 233.828125 L 5.550781 144.753906 L 131.949219 126.414062 Z M 188.523438 12.0625 " fill-opacity="1" fill-rule="nonzero"/></g><g clip-path="url(#926e2043a3)"><path fill="#000000" d="M 187.644531 10.964844 L 244.21875 125.320312 L 370.617188 143.660156 L 279.132812 232.730469 L 300.722656 358.410156 L 187.644531 299.078125 L 74.570312 358.410156 L 96.160156 232.730469 L 4.671875 143.660156 L 131.070312 125.320312 Z M 187.644531 10.964844 " fill-opacity="1" fill-rule="nonzero"/><path fill="#000000" d="M 187.644531 10.964844 L 244.21875 125.320312 L 370.617188 143.660156 L 279.132812 232.730469 L 300.722656 358.410156 L 187.644531 299.078125 L 74.570312 358.410156 L 96.160156 232.730469 L 4.671875 143.660156 L 131.070312 125.320312 Z M 187.644531 10.964844 " fill-opacity="1" fill-rule="nonzero"/><path fill="#000000" d="M 187.644531 10.964844 L 244.21875 125.320312 L 370.617188 143.660156 L 279.132812 232.730469 L 300.722656 358.410156 L 187.644531 299.078125 L 74.570312 358.410156 L 96.160156 232.730469 L 4.671875 143.660156 L 131.070312 125.320312 Z M 187.644531 10.964844 " fill-opacity="1" fill-rule="nonzero"/></g></svg>